<svg width="16" height="16" viewBox="0 0 16 16" fill="none" xmlns="http://www.w3.org/2000/svg">
<path d="M14.6669 7.33306H2.94285L6.47152 3.8044C6.53519 3.7429 6.58598 3.66933 6.62092 3.588C6.65586 3.50666 6.67425 3.41918 6.67502 3.33066C6.67579 3.24214 6.65892 3.15436 6.6254 3.07243C6.59188 2.99049 6.54238 2.91606 6.47978 2.85347C6.41718 2.79087 6.34275 2.74137 6.26082 2.70785C6.17889 2.67433 6.0911 2.65746 6.00258 2.65823C5.91406 2.659 5.82658 2.67739 5.74525 2.71233C5.66391 2.74727 5.59035 2.79806 5.52885 2.86173L0.862183 7.5284C0.737202 7.65341 0.666992 7.82295 0.666992 7.99973C0.666992 8.1765 0.737202 8.34604 0.862183 8.47106L5.52885 13.1377C5.65458 13.2592 5.82299 13.3264 5.99778 13.3248C6.17258 13.3233 6.33979 13.2532 6.4634 13.1296C6.587 13.006 6.65711 12.8388 6.65863 12.664C6.66015 12.4892 6.59296 12.3208 6.47152 12.1951L2.94285 8.6664H14.6669C14.8437 8.6664 15.0132 8.59616 15.1383 8.47113C15.2633 8.34611 15.3335 8.17654 15.3335 7.99973C15.3335 7.82292 15.2633 7.65335 15.1383 7.52832C15.0132 7.4033 14.8437 7.33306 14.6669 7.33306Z" fill="white"/>
</svg>
