<svg width="173" height="38" viewBox="0 0 173 38" fill="none" xmlns="http://www.w3.org/2000/svg">
<g clip-path="url(#clip0_1_30)">
<mask id="mask0_1_30" style="mask-type:luminance" maskUnits="userSpaceOnUse" x="0" y="0" width="173" height="38">
<path d="M173 0H0V37.7325H173V0Z" fill="white"/>
</mask>
<g mask="url(#mask0_1_30)">
<path d="M35.6098 19.789L32.6662 14.8729C32.2825 14.2333 32.0794 13.5008 32.0794 12.7588V7.84907C32.0794 3.51513 28.5362 0 24.1676 0H5.04566C2.26007 0 0 2.24214 0 5.00562V14.4731H9.79792V5.61653H15.411C18.4835 5.61653 20.9758 8.08899 20.9758 11.1371V14.4731H23.4421C25.886 14.4731 27.8688 16.4402 27.8688 18.8647C27.8688 21.2891 25.886 23.2562 23.4421 23.2562H20.9758V26.5922C20.9758 29.6403 18.4835 32.1128 15.411 32.1128H9.79792V23.2562H0V29.9538C0 34.2494 3.511 37.7293 7.83768 37.7293H20.9758C21.0854 36.0277 22.5072 34.7035 24.2223 34.7035H30.1676C32.8532 33.0467 31.2089 30.2865 31.8602 29.5188C33.0369 28.3322 32.3599 27.8364 32.1826 27.056C32.131 26.8257 32.2955 26.6018 32.5308 26.5602C33.8591 26.3203 32.8049 23.6144 32.8049 23.6144C32.9854 23.0803 33.9268 22.5653 34.8328 22.1783C35.7678 21.7817 36.1289 20.6526 35.6098 19.7858V19.789Z" fill="url(#paint0_linear_1_30)"/>
<path d="M49.9085 15.756H47.9482V1.80737H50.9692L55.0476 12.6151L59.1228 1.81057H62.1018V15.756H60.19L60.3254 3.6465L55.7569 15.756H54.3093L49.7602 3.6465L49.9052 15.756H49.9085ZM66.3125 11.1854C66.4672 12.0585 66.867 12.7686 67.5086 13.3155C68.1534 13.8624 68.9143 14.1375 69.7977 14.1375C70.4361 14.1375 71.0099 13.9872 71.5259 13.6897C72.0413 13.3923 72.4542 12.9701 72.7604 12.4231H74.914C74.4306 13.581 73.7507 14.4734 72.8671 15.0939C71.9836 15.7144 70.9616 16.0247 69.7977 16.0247C69.011 16.0247 68.2953 15.8903 67.6504 15.6184C67.0024 15.3465 66.4125 14.934 65.8772 14.3806C65.3872 13.8656 64.9971 13.2643 64.7102 12.5831C64.5748 12.2313 64.4715 11.8858 64.4006 11.5403C64.3297 11.1949 64.2943 10.8431 64.2943 10.4785C64.2943 9.74604 64.42 9.05831 64.6714 8.41223C64.923 7.76935 65.3001 7.17759 65.7999 6.64348C66.3286 6.06456 66.9251 5.62956 67.5924 5.3417C68.2598 5.05384 68.9821 4.9099 69.759 4.9099C70.6908 4.9099 71.5579 5.1242 72.3574 5.5496C73.1569 5.9782 73.8183 6.57951 74.3465 7.35672C74.4953 7.58062 74.627 7.82695 74.7431 8.09877C74.8591 8.37065 74.956 8.64895 75.0336 8.93678C75.1816 9.50932 75.2564 10.1618 75.2564 10.8878V11.1854H66.3157H66.3125ZM73.1569 9.48056C72.9248 8.61378 72.5155 7.94527 71.9324 7.47191C71.345 6.99851 70.6424 6.76182 69.8171 6.76182C68.9917 6.76182 68.2566 7.00171 67.6504 7.48152C67.0411 7.96129 66.6156 8.62973 66.3705 9.48056H73.1569ZM79.2219 15.756H77.3096V5.22016H79.1443V6.41639C79.5444 5.94301 79.9858 5.59758 80.4663 5.37688C80.9462 5.15618 81.4944 5.04744 82.1073 5.04744C83.497 5.04744 84.5642 5.45364 85.3089 6.26287C86.0536 7.07208 86.4245 8.23631 86.4245 9.74924V15.756H84.503V10.1618C84.503 9.04557 84.293 8.21716 83.8736 7.67659C83.455 7.13602 82.8065 6.86738 81.9329 6.86738C80.9917 6.86738 80.3047 7.184 79.8726 7.82054C79.4376 8.45701 79.2219 9.50612 79.2219 10.9679V15.756ZM89.7065 15.756V6.94414H88.21V5.22016H89.7065V1.80737H91.5988V5.21696H93.1046V6.94094H91.5988V15.7528H89.7065V15.756ZM103.476 15.756V14.4637C102.986 14.9691 102.438 15.3497 101.829 15.6088C101.219 15.8679 100.581 15.9958 99.9135 15.9958C98.3245 15.9958 96.9989 15.4681 95.9416 14.4094C94.8844 13.3539 94.3519 12.0297 94.3519 10.4401C94.3519 9.69165 94.4843 8.98797 94.7484 8.32908C95.0133 7.66698 95.3906 7.08487 95.8769 6.57951C96.3994 6.02937 96.9796 5.62316 97.6211 5.35449C98.2633 5.08582 98.9887 4.95148 99.7975 4.95148C100.526 4.95148 101.194 5.07623 101.799 5.32891C102.406 5.58159 102.967 5.9686 103.476 6.49315V5.22016H105.408V15.756H103.476ZM96.3318 10.4145C96.3318 11.4796 96.6863 12.3719 97.399 13.0916C98.1116 13.8113 98.9816 14.1727 100.01 14.1727C100.942 14.1727 101.771 13.8081 102.493 13.082C103.215 12.356 103.573 11.5084 103.573 10.5456C103.573 9.51893 103.218 8.63613 102.506 7.89729C101.793 7.15844 100.949 6.78741 99.9719 6.78741C98.9951 6.78741 98.1017 7.13922 97.3926 7.83969C96.6835 8.54017 96.3318 9.40061 96.3318 10.4145ZM108.025 15.756V1.80737H109.918V15.756H108.025ZM117.617 15.756H115.58V1.80737H117.617V7.72778H123.353V1.80737H125.39V15.756H123.353V9.7108H117.617V15.756ZM129.562 11.1854C129.717 12.0585 130.117 12.7686 130.758 13.3155C131.403 13.8624 132.164 14.1375 133.048 14.1375C133.686 14.1375 134.259 13.9872 134.776 13.6897C135.292 13.3923 135.704 12.9701 136.01 12.4231H138.164C137.68 13.581 137 14.4734 136.117 15.0939C135.233 15.7144 134.211 16.0247 133.048 16.0247C132.261 16.0247 131.545 15.8903 130.9 15.6184C130.252 15.3465 129.662 14.934 129.127 14.3806C128.637 13.8656 128.247 13.2643 127.959 12.5831C127.824 12.2313 127.721 11.8858 127.65 11.5403C127.579 11.1949 127.544 10.8431 127.544 10.4785C127.544 9.74604 127.67 9.05831 127.921 8.41223C128.172 7.76935 128.55 7.17759 129.049 6.64348C129.578 6.06456 130.175 5.62956 130.842 5.3417C131.509 5.05384 132.232 4.9099 133.008 4.9099C133.94 4.9099 134.808 5.1242 135.607 5.5496C136.407 5.9782 137.068 6.57951 137.596 7.35672C137.745 7.58062 137.877 7.82695 137.993 8.09877C138.11 8.37065 138.206 8.64895 138.283 8.93678C138.431 9.50932 138.506 10.1618 138.506 10.8878V11.1854H129.566H129.562ZM136.407 9.48056C136.174 8.61378 135.765 7.94527 135.182 7.47191C134.595 6.99851 133.892 6.76182 133.067 6.76182C132.241 6.76182 131.506 7.00171 130.9 7.48152C130.291 7.96129 129.865 8.62973 129.62 9.48056H136.407ZM149.142 15.756V14.4637C148.652 14.9691 148.104 15.3497 147.494 15.6088C146.885 15.8679 146.247 15.9958 145.579 15.9958C143.99 15.9958 142.664 15.4681 141.607 14.4094C140.55 13.3539 140.017 12.0297 140.017 10.4401C140.017 9.69165 140.15 8.98797 140.414 8.32908C140.679 7.66698 141.056 7.08487 141.542 6.57951C142.065 6.02937 142.645 5.62316 143.287 5.35449C143.929 5.08582 144.654 4.95148 145.463 4.95148C146.192 4.95148 146.859 5.07623 147.466 5.32891C148.072 5.58159 148.633 5.9686 149.142 6.49315V5.22016H151.073V15.756H149.142ZM141.997 10.4145C141.997 11.4796 142.352 12.3719 143.065 13.0916C143.777 13.8113 144.648 14.1727 145.676 14.1727C146.608 14.1727 147.437 13.8081 148.158 13.082C148.881 12.356 149.238 11.5084 149.238 10.5456C149.238 9.51893 148.884 8.63613 148.171 7.89729C147.459 7.15844 146.614 6.78741 145.637 6.78741C144.661 6.78741 143.767 7.13922 143.058 7.83969C142.349 8.54017 141.997 9.40061 141.997 10.4145ZM153.691 15.756V1.80737H155.584V15.756H153.691ZM158.904 15.756V6.94414H157.409V5.22016H158.904V1.80737H160.797V5.21696H162.302V6.94094H160.797V15.7528H158.904V15.756ZM166 15.756H164.089V1.80737H166V6.41639C166.304 5.975 166.704 5.63596 167.197 5.40247C167.693 5.16578 168.267 5.04744 168.925 5.04744C170.205 5.04744 171.204 5.45684 171.923 6.27245C172.642 7.09127 173 8.23631 173 9.7108V15.756H171.088V10.3249C171.088 9.15748 170.888 8.2875 170.488 7.71817C170.089 7.14883 169.479 6.86418 168.654 6.86418C168.151 6.86418 167.706 6.97932 167.316 7.20963C166.926 7.43987 166.62 7.77256 166.394 8.20435C166.265 8.4474 166.168 8.76087 166.101 9.14787C166.033 9.53488 166 10.1395 166 10.9647V15.7528V15.756Z" fill="url(#paint1_linear_1_30)"/>
<path d="M51.5494 35.6253H49.5118V23.5543H46.8745V21.6768H54.1738V23.5543H51.5462V35.6253H51.5494ZM57.256 31.0547C57.4107 31.9279 57.8105 32.638 58.4521 33.1849C59.0969 33.7319 59.8578 34.0069 60.7412 34.0069C61.3795 34.0069 61.9534 33.8566 62.4693 33.5592C62.9852 33.2616 63.3978 32.8395 63.7041 32.2926H65.8578C65.3742 33.4504 64.6939 34.3428 63.8105 34.9633C62.9271 35.5838 61.9051 35.894 60.7412 35.894C59.9545 35.894 59.2388 35.7597 58.5939 35.4878C57.9459 35.216 57.3559 34.8033 56.8207 34.25C56.3307 33.7351 55.9406 33.1337 55.6536 32.4525C55.5182 32.1006 55.415 31.7552 55.3441 31.4098C55.2732 31.0643 55.2377 30.7125 55.2377 30.3478C55.2377 29.6154 55.3635 28.9277 55.6149 28.2817C55.8664 27.6387 56.2436 27.047 56.7433 26.5129C57.2721 25.9339 57.8686 25.4989 58.5359 25.2111C59.2033 24.9233 59.9255 24.7793 60.7025 24.7793C61.6343 24.7793 62.5015 24.9936 63.3011 25.419C64.1007 25.8476 64.7616 26.4489 65.2903 27.2261C65.4386 27.45 65.5708 27.6963 65.6869 27.9682C65.803 28.2401 65.8997 28.5183 65.9771 28.8062C66.1254 29.3787 66.1995 30.0312 66.1995 30.7573V31.0547H57.2592H57.256ZM64.1007 29.3499C63.8685 28.4831 63.4591 27.8146 62.8755 27.3413C62.2887 26.8679 61.5859 26.6313 60.7605 26.6313C59.9352 26.6313 59.2001 26.8711 58.5939 27.3509C57.9846 27.8306 57.5591 28.4992 57.314 29.3499H64.1007ZM68.2533 35.6253V21.6768H70.1458V35.6253H68.2533ZM74.2403 31.0547C74.3948 31.9279 74.7949 32.638 75.4364 33.1849C76.0814 33.7319 76.8425 34.0069 77.7253 34.0069C78.3639 34.0069 78.9377 33.8566 79.4538 33.5592C79.9693 33.2616 80.3822 32.8395 80.6883 32.2926H82.8419C82.3585 33.4504 81.6779 34.3428 80.7951 34.9633C79.9116 35.5838 78.8893 35.894 77.7253 35.894C76.9386 35.894 76.2231 35.7597 75.5781 35.4878C74.9302 35.216 74.34 34.8033 73.8054 34.25C73.3148 33.7351 72.9247 33.1337 72.6378 32.4525C72.5025 32.1006 72.3993 31.7552 72.3288 31.4098C72.2576 31.0643 72.222 30.7125 72.222 30.3478C72.222 29.6154 72.348 28.9277 72.5993 28.2817C72.8506 27.6387 73.228 27.047 73.7277 26.5129C74.2567 25.9339 74.8526 25.4989 75.5204 25.2111C76.1875 24.9233 76.9101 24.7793 77.6868 24.7793C78.6187 24.7793 79.4859 24.9936 80.2854 25.419C81.0849 25.8476 81.7463 26.4489 82.2745 27.2261C82.4233 27.45 82.555 27.6963 82.6711 27.9682C82.7871 28.2401 82.8839 28.5183 82.9615 28.8062C83.1096 29.3787 83.1837 30.0312 83.1837 30.7573V31.0547H74.2439H74.2403ZM81.0849 29.3499C80.8528 28.4831 80.4434 27.8146 79.8596 27.3413C79.273 26.8679 78.5703 26.6313 77.7452 26.6313C76.9194 26.6313 76.1846 26.8711 75.5781 27.3509C74.9686 27.8306 74.5436 28.4992 74.2987 29.3499H81.0849ZM87.9009 35.6253H85.9695V33.268H87.9009V35.6253ZM101.371 32.0335C100.926 33.2873 100.268 34.2468 99.398 34.9057C98.5237 35.5646 97.4565 35.894 96.1964 35.894C95.4097 35.894 94.6935 35.7597 94.0428 35.491C93.7203 35.3566 93.417 35.1903 93.1301 34.9953C92.8432 34.7969 92.5662 34.5539 92.295 34.2692C91.8052 33.7542 91.4151 33.1529 91.1281 32.4717C90.9929 32.1198 90.8896 31.7744 90.8184 31.429C90.7473 31.0835 90.7124 30.7317 90.7124 30.3671C90.7124 29.6474 90.8377 28.9629 91.089 28.32C91.341 27.6772 91.7183 27.0854 92.2174 26.5512C92.7656 25.9724 93.3786 25.531 94.062 25.2303C94.7455 24.9297 95.4738 24.7793 96.2541 24.7793C97.4629 24.7793 98.5173 25.1119 99.4108 25.774C100.307 26.4361 100.959 27.3733 101.371 28.5823H99.2755C98.9466 27.9394 98.5173 27.4597 97.9855 27.143C97.4537 26.8263 96.8215 26.6664 96.0868 26.6664C95.1449 26.6664 94.3454 27.0215 93.6811 27.7283C93.0176 28.4352 92.6887 29.3083 92.6887 30.3446C92.6887 31.381 93.024 32.2701 93.6911 32.9706C94.3617 33.6711 95.1933 34.0229 96.1928 34.0229C96.8507 34.0229 97.4501 33.8502 97.9955 33.508C98.5401 33.1657 98.9658 32.6732 99.2755 32.0303H101.371V32.0335ZM103.051 30.3671C103.051 29.625 103.176 28.9309 103.428 28.2785C103.68 27.626 104.06 27.0342 104.572 26.4969C105.085 25.9595 105.678 25.5374 106.355 25.2239C107.032 24.9104 107.729 24.7537 108.451 24.7537C109.231 24.7537 109.947 24.888 110.605 25.1599C111.262 25.4318 111.855 25.838 112.391 26.3817C112.906 26.9063 113.303 27.5012 113.587 28.1729C113.871 28.8446 114.013 29.529 114.013 30.2327C114.013 30.9364 113.884 31.672 113.625 32.3501C113.368 33.0282 113 33.6199 112.526 34.1317C112.268 34.4131 111.984 34.6658 111.672 34.8929C111.359 35.12 111.037 35.3119 110.701 35.4718C110.024 35.7725 109.312 35.9228 108.557 35.9228C107.803 35.9228 107.061 35.7853 106.403 35.507C105.746 35.2287 105.159 34.8194 104.637 34.2756C104.147 33.7574 103.756 33.1593 103.47 32.4749C103.334 32.123 103.231 31.7744 103.161 31.4321C103.089 31.0867 103.054 30.7317 103.054 30.3703L103.051 30.3671ZM105.03 30.3478C105.03 31.4001 105.365 32.2797 106.04 32.9834C106.713 33.6871 107.551 34.0357 108.554 34.0357C109.557 34.0357 110.366 33.6807 111.03 32.9738C111.697 32.2637 112.03 31.3842 112.03 30.3287C112.03 29.2732 111.697 28.3744 111.03 27.6803C110.362 26.9862 109.531 26.6408 108.535 26.6408C107.538 26.6408 106.726 26.9926 106.049 27.6995C105.369 28.4064 105.03 29.2892 105.03 30.3478ZM122.595 30.3095C122.595 29.0332 122.411 28.1025 122.04 27.5172C121.669 26.9319 121.089 26.6408 120.296 26.6408C119.503 26.6408 118.864 26.9351 118.471 27.5236C118.078 28.1121 117.881 29.0141 117.881 30.2359V35.6285H116.066V25.0928H117.765V26.3273C118.107 25.8668 118.507 25.5181 118.961 25.2783C119.419 25.0384 119.929 24.92 120.496 24.92C121.27 24.92 121.908 25.0639 122.418 25.3518C122.927 25.6397 123.35 26.1035 123.691 26.74C124.013 26.1323 124.449 25.678 124.993 25.3742C125.542 25.0703 126.199 24.92 126.973 24.92C128.169 24.92 129.13 25.3071 129.849 26.0843C130.571 26.8615 130.929 27.8978 130.929 29.1932V35.6317H129.007V29.4907C129.007 28.5855 128.811 27.8818 128.418 27.3892C128.024 26.8935 127.47 26.6472 126.757 26.6472C125.932 26.6472 125.342 26.9127 124.981 27.4436C124.62 27.9746 124.439 28.8669 124.439 30.1271V35.6349H122.585V30.3191L122.595 30.3095Z" fill="url(#paint2_linear_1_30)"/>
</g>
</g>
<defs>
<linearGradient id="paint0_linear_1_30" x1="8.91455" y1="29.0167" x2="17.0943" y2="16.1411" gradientUnits="userSpaceOnUse">
<stop offset="0.21" stop-color="#219580"/>
<stop offset="1" stop-color="#346079"/>
</linearGradient>
<linearGradient id="paint1_linear_1_30" x1="119.794" y1="-10.2029" x2="109.042" y2="12.0491" gradientUnits="userSpaceOnUse">
<stop stop-color="#219580"/>
<stop offset="1" stop-color="#346079"/>
</linearGradient>
<linearGradient id="paint2_linear_1_30" x1="95.0808" y1="16.0731" x2="87.7158" y2="31.3184" gradientUnits="userSpaceOnUse">
<stop stop-color="#219580"/>
<stop offset="1" stop-color="#346079"/>
</linearGradient>
<clipPath id="clip0_1_30">
<rect width="173" height="37.7325" fill="white"/>
</clipPath>
</defs>
</svg>
