<svg width="28" height="27" viewBox="0 0 28 27" fill="none" xmlns="http://www.w3.org/2000/svg">
<path d="M27.4138 22.7862L15.7633 1.15049C14.9375 -0.383496 12.7377 -0.383496 11.9112 1.15049L0.261427 22.7862C0.0821286 23.1192 -0.00776319 23.4931 0.000525475 23.8712C0.00881414 24.2493 0.115 24.6188 0.308719 24.9437C0.502437 25.2685 0.777069 25.5376 1.10581 25.7246C1.43455 25.9116 1.80616 26.0102 2.18438 26.0107H25.4874C25.8659 26.0108 26.2379 25.9126 26.5672 25.7258C26.8964 25.5391 27.1715 25.2701 27.3656 24.9451C27.5597 24.6202 27.6662 24.2504 27.6747 23.872C27.6831 23.4936 27.5932 23.1195 27.4138 22.7862ZM13.8376 22.6611C13.5672 22.6611 13.3029 22.5809 13.078 22.4307C12.8532 22.2805 12.678 22.067 12.5745 21.8171C12.471 21.5673 12.4439 21.2924 12.4967 21.0272C12.5494 20.762 12.6796 20.5184 12.8709 20.3272C13.0621 20.136 13.3057 20.0058 13.5709 19.953C13.8361 19.9003 14.111 19.9273 14.3608 20.0308C14.6106 20.1343 14.8241 20.3095 14.9744 20.5344C15.1246 20.7592 15.2048 21.0235 15.2048 21.2939C15.2048 21.6565 15.0607 22.0043 14.8043 22.2607C14.5479 22.5171 14.2002 22.6611 13.8376 22.6611ZM15.3224 8.91064L14.93 17.2505C14.93 17.5406 14.8147 17.8188 14.6096 18.0239C14.4045 18.229 14.1263 18.3442 13.8362 18.3442C13.5462 18.3442 13.268 18.229 13.0628 18.0239C12.8577 17.8188 12.7425 17.5406 12.7425 17.2505L12.3501 8.91406C12.3413 8.71486 12.3727 8.51591 12.4424 8.32909C12.5121 8.14227 12.6187 7.9714 12.7558 7.82665C12.893 7.68191 13.0579 7.56626 13.2407 7.4866C13.4235 7.40694 13.6204 7.3649 13.8198 7.36299H13.8342C14.0349 7.36289 14.2336 7.40346 14.4183 7.48225C14.6029 7.56105 14.7697 7.67644 14.9085 7.82145C15.0473 7.96647 15.1553 8.13811 15.226 8.32601C15.2966 8.51392 15.3285 8.71419 15.3196 8.91475L15.3224 8.91064Z" fill="#E4D74B"/>
</svg>
